# xmcd
#
# Track frame offsets:
#	150
#	13840
#	26181
#	37258
#	55069
#	70953
#	80805
#	99954
#	124860
#	128381
#	142723
#	156673
#	168464
#	179458
#	192175
#	198735
#	207679
#	215747
#	230575
#	242990
#	263011
#	278048
#	286594
#	307162
#
# Disc length: 4449 seconds
#
# Revision: 1
# Processed by: cddbd v1.5.2PL0 Copyright (c) Steve Scherf et al.
# Submitted via: EZCDAudioConverter 2.5.0.1
#
DISCID=74115f18
DTITLE=Various Artist - ZOOЛогика#2-Взрослый диск
DYEAR=2008
DGENRE=country
TTITLE0=Вадим и Валерий Мищуки - Прощайте голуби
TTITLE1=Наталья Дудкина - Дуэт для сверчка и пэра
TTITLE2=Алексей Иващенко - Как быстро привыкает кот к уюту
TTITLE3=Сергей Никитин - На горелом на болоте
TTITLE4=Вадим и Валерий Мищуки, Леонид Сергеев - Муха
TTITLE5=Любоовь Захарченко - Песец
TTITLE6=Тимур Шаов - Кошачий блюз
TTITLE7=Галина Хомчик - Белый воробей
TTITLE8=Владимир Васильев - Как на лужу ворбьишко
TTITLE9=Елена Камбурова - Кузнечик
TTITLE10=Вадим Егоров - На смерть собаки
TTITLE11=Песни нашего века - Собака Тяба
TTITLE12=Татьяна Дрыгина - Колыбельнная с мышами
TTITLE13=Елена Камбурова - Зимним вечером на сеновале
TTITLE14=Александр Иванов - Ворон
TTITLE15=Лидия Чебоксарова - Стрекоза и муравей
TTITLE16=Владимир Васильев - Ворона
TTITLE17=Леонид Сергеев - Песня о любимых животных
TTITLE18=Иваси - Баланда о селедке
TTITLE19=Валерий Мищук - Генералисимус Пульхер
TTITLE20=Петр Маркин - Мартовский кот
TTITLE21=Лидия Чебоксарова - Улитки
TTITLE22=Ирина Богушевская - Наперегонки с волной
TTITLE23=Андрей Козловский - Акула
EXTD=
EXTT0=
EXTT1=
EXTT2=
EXTT3=
EXTT4=
EXTT5=
EXTT6=
EXTT7=
EXTT8=
EXTT9=
EXTT10=
EXTT11=
EXTT12=
EXTT13=
EXTT14=
EXTT15=
EXTT16=
EXTT17=
EXTT18=
EXTT19=
EXTT20=
EXTT21=
EXTT22=
EXTT23=
PLAYORDER=
